<?xml version="1.0" encoding="UTF-8" standalone="no"?>
<svg width="272px" height="272px" viewBox="0 0 272 272" version="1.1" xmlns="http://www.w3.org/2000/svg" xmlns:xlink="http://www.w3.org/1999/xlink">
    <!-- Generator: Sketch 3.6.1 (26313) - http://www.bohemiancoding.com/sketch -->
    <title>amused</title>
    <desc>Created with Sketch.</desc>
    <defs></defs>
    <g id="Page-1" stroke="none" stroke-width="1" fill="none" fill-rule="evenodd">
        <g id="amused" transform="translate(8.000000, 8.000000)">
            <circle id="Oval-1" stroke="#fff" stroke-width="15" cx="128" cy="128" r="128"></circle>
            <path d="M107.208748,67.1342346 C110.591815,71.5841606 112.599949,77.136313 112.599949,83.1574904 C112.599949,97.7930362 100.735495,109.65749 86.0999489,109.65749 C71.4644031,109.65749 59.5999489,97.7930362 59.5999489,83.1574904 C59.5999489,77.136313 61.6080832,71.5841606 64.9911502,67.1342346 C69.8312282,71.0982266 77.4855787,73.6574904 86.0999489,73.6574904 C94.7143191,73.6574904 102.36867,71.0982266 107.20875,67.1342323 Z" id="Combined-Shape" fill="#fff" transform="translate(86.099949, 88.395861) scale(-1, -1) rotate(-15.000000) translate(-86.099949, -88.395861) "></path>
            <path d="M193.208748,68.1342346 C196.591815,72.5841606 198.599949,78.136313 198.599949,84.1574904 C198.599949,98.7930362 186.735495,110.65749 172.099949,110.65749 C157.464403,110.65749 145.599949,98.7930362 145.599949,84.1574904 C145.599949,78.136313 147.608083,72.5841606 150.99115,68.1342346 C155.831228,72.0982266 163.485579,74.6574904 172.099949,74.6574904 C180.714319,74.6574904 188.36867,72.0982266 193.20875,68.1342323 Z" id="Combined-Shape-Copy-3" fill="#fff" transform="translate(172.099949, 89.395861) scale(1, -1) rotate(-15.000000) translate(-172.099949, -89.395861) "></path>
            <path d="M128.562469,183.65868 C152.578741,183.65868 190.624939,157.5 190.624939,157.5 C190.624939,157.5 149.172889,193.65868 128.562469,193.65868 C107.797909,193.65868 66.5,157.5 66.5,157.5 C66.5,157.5 104.537095,183.65868 128.562469,183.65868 Z" id="Line" stroke="#fff" stroke-width="15" stroke-linecap="round" stroke-linejoin="round" fill="#fff"></path>
        </g>
    </g>
</svg>
