<?xml version="1.0" encoding="UTF-8" standalone="no"?>
<svg width="256px" height="256px" viewBox="0 0 256 256" version="1.1" xmlns="http://www.w3.org/2000/svg" xmlns:xlink="http://www.w3.org/1999/xlink">
    <!-- Generator: Sketch 3.6.1 (26313) - http://www.bohemiancoding.com/sketch -->
    <title>amused</title>
    <desc>Created with Sketch.</desc>
    <defs></defs>
    <g id="Page-1" stroke="none" stroke-width="1" fill="none" fill-rule="evenodd">
        <g id="filled" transform="translate(-356.000000, 0.000000)" fill="#EBB64B">
            <g id="amused" transform="translate(356.000000, 0.000000)">
                <path d="M186.986569,118.396375 C191.406086,114.973679 194.782798,110.130454 196.341193,104.314444 C200.129151,90.177592 191.739715,75.6466627 177.602863,71.8587047 C163.466012,68.0707467 148.935082,76.4601827 145.147124,90.5970344 C143.588729,96.4130451 144.091435,102.295756 146.207501,107.469657 C151.908614,104.893439 159.964535,104.402471 168.285378,106.632034 C176.60622,108.861598 183.337369,113.314748 186.986571,118.396378 Z M71.213329,117.396375 C66.7938116,113.973679 63.4171001,109.130454 61.8587047,103.314444 C58.0707467,89.177592 66.4601827,74.6466627 80.5970344,70.8587047 C94.7338861,67.0707467 109.264815,75.4601827 113.052773,89.5970344 C114.611169,95.4130451 114.108463,101.295756 111.992397,106.469657 C106.291284,103.893439 98.2353627,103.402471 89.91452,105.632034 C81.5936774,107.861598 74.8625287,112.314748 71.2133269,117.396378 Z M128,256 C198.692448,256 256,198.692448 256,128 C256,57.307552 198.692448,0 128,0 C57.307552,0 0,57.307552 0,128 C0,198.692448 57.307552,256 128,256 Z M129.062469,193.645823 C153.078741,193.645823 191.124939,161.80715 191.124939,157.487143 C191.124939,153.167136 149.672889,179.000651 129.062469,179.000651 C108.297909,179.000651 67,153.167347 67,157.487143 C67,161.806939 105.037095,193.645823 129.062469,193.645823 Z" id="Combined-Shape"></path>
            </g>
        </g>
    </g>
</svg>