<?xml version="1.0" encoding="UTF-8" standalone="no"?>
<svg width="256px" height="256px" viewBox="0 0 256 256" version="1.1" xmlns="http://www.w3.org/2000/svg" xmlns:xlink="http://www.w3.org/1999/xlink">
    <!-- Generator: Sketch 3.6.1 (26313) - http://www.bohemiancoding.com/sketch -->
    <title>inspired</title>
    <desc>Created with Sketch.</desc>
    <defs></defs>
    <g id="Page-1" stroke="none" stroke-width="1" fill="none" fill-rule="evenodd">
        <g id="filled" transform="translate(-1760.000000, 0.000000)" fill="#4CADEB">
            <g id="inspired" transform="translate(1760.000000, 0.000000)">
                <path d="M128,256 C198.692448,256 256,198.692448 256,128 C256,57.307552 198.692448,0 128,0 C57.307552,0 0,57.307552 0,128 C0,198.692448 57.307552,256 128,256 Z M128.562469,193.65868 C152.578741,193.65868 190.624939,161.820007 190.624939,157.5 C190.624939,153.179993 149.172889,179.013508 128.562469,179.013508 C107.797909,179.013508 66.5,153.180204 66.5,157.5 C66.5,161.819796 104.537095,193.65868 128.562469,193.65868 Z M87.6898455,111.744372 L69.9802775,125.447836 L69.8756563,103.055811 L51.3703295,90.4476144 L72.6340812,83.4285973 L78.9067283,61.9328387 L92.1530708,79.9868728 L114.535107,79.3099599 L101.458045,97.4869837 L109.018257,118.564387 L87.6898455,111.744372 Z M166.71615,111.744372 L145.387739,118.564387 L152.947951,97.4869837 L139.870889,79.3099599 L162.252925,79.9868728 L175.499267,61.9328387 L181.771914,83.4285973 L203.035666,90.4476144 L184.530339,103.055811 L184.425718,125.447836 L166.71615,111.744372 Z" id="Combined-Shape"></path>
            </g>
        </g>
    </g>
</svg>