<?xml version="1.0" encoding="UTF-8" standalone="no"?>
<svg width="272px" height="272px" viewBox="0 0 272 272" version="1.1" xmlns="http://www.w3.org/2000/svg" xmlns:xlink="http://www.w3.org/1999/xlink">
    <!-- Generator: Sketch 3.6.1 (26313) - http://www.bohemiancoding.com/sketch -->
    <title>sad</title>
    <desc>Created with Sketch.</desc>
    <defs></defs>
    <g id="Page-1" stroke="none" stroke-width="1" fill="none" fill-rule="evenodd">
        <g id="sad" transform="translate(8.000000, 8.000000)">
            <circle id="Oval-1" stroke="#fff" stroke-width="15" cx="128" cy="128" r="128"></circle>
            <path d="M87.3892901,67.6789541 C100.665688,69.1185308 111,80.3640405 111,94.0232581 C111,108.658804 99.1355459,120.523258 84.5,120.523258 C69.8644541,120.523258 58,108.658804 58,94.0232581 C58,92.0711877 58.2110673,90.1684146 58.6116251,88.3365157 C61.8576387,87.9219051 65.2551491,87.0450552 68.6403361,85.6773509 C78.5793833,81.6617152 85.6555177,74.5285215 87.3892901,67.6789541 Z" id="Combined-Shape" fill="#fff"></path>
            <path d="M176.38929,68 C189.665688,69.4395766 200,80.6850864 200,94.344304 C200,108.97985 188.135546,120.844304 173.5,120.844304 C158.864454,120.844304 147,108.97985 147,94.344304 C147,92.3922336 147.211067,90.4894605 147.611625,88.6575615 C150.857639,88.242951 154.255149,87.3661011 157.640336,85.9983968 C167.579383,81.982761 174.655518,74.8495673 176.38929,68 Z" id="Combined-Shape-Copy" fill="#fff" transform="translate(173.500000, 94.422152) scale(-1, 1) translate(-173.500000, -94.422152) "></path>
            <path d="M128.562469,183.65868 C152.578741,183.65868 190.624939,147.5 190.624939,147.5 C190.624939,147.5 149.172889,172.013508 128.562469,172.013508 C107.797909,172.013508 66.5,147.5 66.5,147.5 C66.5,147.5 104.537095,183.65868 128.562469,183.65868 Z" id="Line" stroke="#fff" stroke-width="15" stroke-linecap="round" stroke-linejoin="round" fill="#fff" transform="translate(128.562469, 165.579340) scale(1, -1) translate(-128.562469, -165.579340) "></path>
        </g>
    </g>
</svg>