<?xml version="1.0" encoding="UTF-8" standalone="no"?>
<svg width="256px" height="256px" viewBox="0 0 256 256" version="1.1" xmlns="http://www.w3.org/2000/svg" xmlns:xlink="http://www.w3.org/1999/xlink">
    <!-- Generator: Sketch 3.6.1 (26313) - http://www.bohemiancoding.com/sketch -->
    <title>sad</title>
    <desc>Created with Sketch.</desc>
    <defs></defs>
    <g id="Page-1" stroke="none" stroke-width="1" fill="none" fill-rule="evenodd">
        <g id="filled" transform="translate(-702.000000, 0.000000)" fill="#4B78EB">
            <g id="sad" transform="translate(702.000000, 0.000000)">
                <path d="M170.61071,68 C157.334312,69.4395766 147,80.6850864 147,94.344304 C147,108.97985 158.864454,120.844304 173.5,120.844304 C188.135546,120.844304 200,108.97985 200,94.344304 C200,92.3922336 199.788933,90.4894605 199.388375,88.6575615 C196.142361,88.242951 192.744851,87.3661011 189.359664,85.9983968 C179.420617,81.982761 172.344482,74.8495673 170.61071,68 Z M87.3892901,67.6789541 C100.665688,69.1185308 111,80.3640405 111,94.0232581 C111,108.658804 99.1355459,120.523258 84.5,120.523258 C69.8644541,120.523258 58,108.658804 58,94.0232581 C58,92.0711877 58.2110673,90.1684146 58.6116251,88.3365157 C61.8576387,87.9219051 65.2551491,87.0450552 68.6403361,85.6773509 C78.5793833,81.6617152 85.6555177,74.5285215 87.3892901,67.6789541 Z M128,256 C198.692448,256 256,198.692448 256,128 C256,57.307552 198.692448,0 128,0 C57.307552,0 0,57.307552 0,128 C0,198.692448 57.307552,256 128,256 Z M128.062469,158.5 C152.078741,158.5 190.124939,190.338673 190.124939,194.65868 C190.124939,198.978687 148.672889,173.145172 128.062469,173.145172 C107.297909,173.145172 66,198.978476 66,194.65868 C66,190.338884 104.037095,158.5 128.062469,158.5 Z" id="Combined-Shape"></path>
            </g>
        </g>
    </g>
</svg>