<?xml version="1.0" encoding="UTF-8" standalone="no"?>
<svg width="256px" height="256px" viewBox="0 0 256 256" version="1.1" xmlns="http://www.w3.org/2000/svg" xmlns:xlink="http://www.w3.org/1999/xlink">
    <!-- Generator: Sketch 3.6.1 (26313) - http://www.bohemiancoding.com/sketch -->
    <title>weird</title>
    <desc>Created with Sketch.</desc>
    <defs></defs>
    <g id="Page-1" stroke="none" stroke-width="1" fill="none" fill-rule="evenodd">
        <g id="filled" transform="translate(-1414.000000, 0.000000)" fill="#AC4CEB">
            <g id="weird" transform="translate(1414.000000, 0.000000)">
                <path d="M127.689046,185.811334 C123.016702,185.962146 119.264186,184.291042 113.076277,180.310457 C107.731712,176.872382 106.251505,176.103825 104.702705,176.103825 C102.876455,176.103825 99.9630261,176.899243 96.3941427,178.356798 C94.845932,178.989097 93.2087483,179.730282 91.5132223,180.558087 C89.4187129,181.580688 87.3459279,182.680052 85.393149,183.779021 C84.7108555,184.162996 84.0936055,184.518723 83.553362,184.836624 C83.2350428,185.023936 83.0171493,185.154536 82.9115502,185.218876 C76.9808857,188.832337 72.8937165,177.028481 78.8215473,173.406837 C78.964736,173.319355 79.2209055,173.165412 79.5785865,172.95442 C80.1649101,172.608555 80.8294864,172.224675 81.5609408,171.812164 C83.6473508,170.635513 85.8613763,169.459277 88.1145987,168.357981 C89.9876467,167.442501 91.8094017,166.618047 93.5562154,165.906563 C97.9486513,164.117506 101.665774,163.107183 104.687634,163.103833 C104.69266,163.103828 104.697683,163.103825 104.702705,163.103825 C105.177108,163.103825 105.621758,163.119809 106.051144,163.157103 C109.589213,163.448039 112.566383,164.966663 118.276832,168.59454 C123.266262,171.764351 125.402112,172.790235 127.555547,172.811119 C129.174812,172.734338 131.157925,171.947273 133.940328,170.317516 C134.739886,169.849185 135.471363,169.397438 136.836328,168.537645 C140.413223,166.284557 141.800813,165.46744 143.778599,164.576448 C146.611281,163.300324 149.183284,162.748811 151.718066,163.107456 C154.618019,163.17508 158.130475,164.184841 162.252364,165.927002 C162.608959,166.077721 162.968746,166.233474 163.331514,166.394056 C164.592725,166.896603 165.841511,167.440687 167.076026,168.022341 C169.632023,169.226625 171.969797,170.518596 174.047574,171.816541 C175.32095,172.611992 176.245094,173.248545 176.776947,173.645444 C182.281831,177.753501 177.965481,188.789641 172.266913,185.176799 C172.166675,185.113249 171.958525,184.983447 171.65385,184.796946 C171.136085,184.480007 170.544244,184.125252 169.889812,183.742263 C168.016578,182.646004 166.027318,181.549331 164.016593,180.529506 C162.767532,179.895991 161.551411,179.313557 160.381636,178.792278 C157.345084,177.591838 154.240527,176.672922 151.116917,176.109302 C148.885775,176.193542 146.623829,177.264473 141.566937,180.360182 C134.985672,184.389074 131.930607,185.796939 127.689046,185.811334 Z M192.573586,67.205148 C200.862668,74.5272797 205.257167,85.8619101 203.195991,97.5514194 C200.045809,115.416993 183.009172,127.346174 165.143599,124.195991 C147.278026,121.045809 135.348845,104.009172 138.499027,86.1435992 C140.457826,75.0347009 147.785699,66.2210561 157.343419,61.900775 C161.849225,64.5251536 167.291791,66.535023 173.296018,67.5937303 C180.232424,68.8168058 186.898608,68.5906277 192.573586,67.205148 Z M94.5505521,68.1662396 C102.490159,71.5719231 108.610654,78.7878701 110.22285,87.9310926 C112.764286,102.344292 103.140321,116.088739 88.7271216,118.630175 C74.3139226,121.171611 60.5694753,111.547645 58.0280395,97.134446 C56.4158426,87.9912235 59.699227,79.117119 65.9952047,73.2013178 C70.392694,74.1505665 75.4693289,74.2582572 80.7393055,73.3290181 C86.009282,72.3997791 90.7429259,70.5622715 94.5505521,68.1662396 Z M128,256 C198.692448,256 256,198.692448 256,128 C256,57.307552 198.692448,0 128,0 C57.307552,0 0,57.307552 0,128 C0,198.692448 57.307552,256 128,256 Z" id="Combined-Shape"></path>
            </g>
        </g>
    </g>
</svg>