<?xml version="1.0" encoding="UTF-8" standalone="no"?>
<svg width="272px" height="272px" viewBox="0 0 272 272" version="1.1" xmlns="http://www.w3.org/2000/svg" xmlns:xlink="http://www.w3.org/1999/xlink">
    <!-- Generator: Sketch 3.6.1 (26313) - http://www.bohemiancoding.com/sketch -->
    <title>weird</title>
    <desc>Created with Sketch.</desc>
    <defs></defs>
    <g id="Page-1" stroke="none" stroke-width="1" fill="none" fill-rule="evenodd">
        <g id="weird" transform="translate(8.000000, 8.000000)">
            <circle id="Oval-1" stroke="#fff" stroke-width="15" cx="128" cy="128" r="128"></circle>
            <path d="M98.9979298,72.3139535 C106.225526,77.0465953 111,85.2157285 111,94.5 C111,109.135546 99.1355459,121 84.5,121 C69.8644541,121 58,109.135546 58,94.5 C58,85.2157285 62.7744745,77.0465953 70.0020702,72.3139535 C74.1679165,74.012397 79.1487256,75 84.5,75 C89.8512744,75 94.8320835,74.012397 98.9979298,72.3139535 Z" id="Combined-Shape" stroke="#fff" fill="#fff"></path>
            <path d="M184.99793,71.8372116 C192.225526,76.5698534 197,84.7389866 197,94.0232581 C197,108.658804 185.135546,120.523258 170.5,120.523258 C155.864454,120.523258 144,108.658804 144,94.0232581 C144,84.7389866 148.774474,76.5698534 156.00207,71.8372116 C160.167916,73.5356551 165.148726,74.5232581 170.5,74.5232581 C175.851274,74.5232581 180.832084,73.5356551 184.99793,71.8372116 Z" id="Combined-Shape-Copy-2" fill="#fff"></path>
            <path d="M98.1375141,177.207621 C106.791488,177.207621 117.159481,167.191611 128.562469,167.5 C139.061781,167.783949 150.537869,178.452501 160.136932,177.207621 C177.32153,174.978989 190.624939,167.5 190.624939,167.5 C190.624939,167.5 170.299602,177.207621 160.136932,177.207621 C149.612112,177.207621 139.08729,167.5 128.562469,167.5 C118.420818,167.5 108.279166,177.207621 98.1375141,177.207621 C87.5916759,177.207621 66.5,167.5 66.5,167.5 C66.5,167.5 87.6495468,177.207621 98.1375141,177.207621 Z" id="Line" stroke="#fff" stroke-width="15" stroke-linecap="round" stroke-linejoin="round"></path>
        </g>
    </g>
</svg>
